<svg width="440" height="531" viewBox="0 0 440 531" fill="none" xmlns="http://www.w3.org/2000/svg">
<g opacity="0.54">
<path opacity="0.54" d="M414.852 627.857C396.9 640.488 369.166 632.755 355.061 616.47C340.955 600.185 337.358 578.249 336.08 557.384C334.791 536.519 335.186 515.066 327.255 495.512C310.831 455.046 264.158 433.563 221.082 417.028C178.006 400.492 130.772 382.095 109.629 343.557C93.0493 313.339 96.49 277.384 89.3176 244.139C76.8023 186.105 28.6743 135.861 -32.0001 117.522" stroke="url(#paint0_linear_10_1090)" stroke-width="0.8669" stroke-miterlimit="10"/>
<path opacity="0.54" d="M420.403 625.552C402.482 638.183 374.811 630.624 360.549 614.513C359.271 613.076 358.086 611.581 356.963 610.058C345.612 594.496 342.296 574.72 340.903 555.793C340.633 552.139 340.415 548.466 340.196 544.792C339.178 527.543 338.117 510.178 331.496 494.114C329.344 488.908 326.704 484.01 323.627 479.401C302.889 448.296 262.661 430.285 225.074 416.179C222.34 415.157 219.596 414.125 216.841 413.084C176.062 397.667 133.797 379.675 112.82 344.752C106.823 334.763 102.706 324.147 100.149 312.818C97.1243 299.445 96.2823 285.378 95.2948 271.58C94.6191 262.16 93.8603 252.817 92.2907 243.628C91.5526 239.309 90.6171 235.018 89.4737 230.766C82.2078 203.692 66.47 178.362 45.3374 158.057C24.1528 137.703 -2.34362 122.285 -31.4283 113.762" stroke="url(#paint1_linear_10_1090)" stroke-width="0.8669" stroke-miterlimit="10"/>
<path opacity="0.54" d="M425.953 623.258C408.054 635.898 380.455 628.512 366.038 612.574C364.749 611.147 363.543 609.672 362.41 608.159C350.913 592.741 347.358 573.072 345.726 554.203C345.414 550.558 345.155 546.904 344.895 543.24C343.679 526.048 342.452 508.722 335.747 492.716C333.575 487.529 330.914 482.641 327.816 478.041C306.943 447.004 266.726 429.138 229.076 415.321C226.342 414.318 223.587 413.306 220.833 412.294C180.002 397.233 138.111 379.685 116.032 345.919C109.577 336.055 104.66 325.603 101.76 314.043C98.33 300.38 97.7271 285.792 97.197 271.676C96.8332 262.044 96.4797 252.518 95.2739 243.117C94.7022 238.692 93.933 234.305 92.9247 229.927C86.5215 202.072 70.4616 175.653 48.5909 154.846C26.6787 133.99 -0.857156 118.544 -30.8669 110.021" stroke="url(#paint2_linear_10_1090)" stroke-width="0.8669" stroke-miterlimit="10"/>
<path opacity="0.54" d="M431.515 620.953C413.646 633.594 386.11 626.391 371.547 610.617C370.248 609.209 369.021 607.754 367.878 606.249C356.225 590.967 352.431 571.413 350.57 552.602C350.217 548.977 349.905 545.322 349.604 541.678C348.19 524.544 346.797 507.266 340.009 491.309C337.816 486.141 335.134 481.271 332.026 476.682C311.029 445.722 270.821 427.99 233.099 414.463C230.354 413.479 227.6 412.496 224.845 411.503C183.952 396.799 142.404 379.685 119.255 347.095C112.332 337.347 106.636 327.069 103.392 315.267C99.5463 301.316 99.1929 286.207 99.1305 271.773C99.0785 261.919 99.1409 252.219 98.2885 242.606C97.8935 238.084 97.2802 233.581 96.4071 229.088C90.8667 200.452 74.4948 172.944 51.8861 151.635C29.2359 130.278 0.670983 114.803 -30.2639 106.27" stroke="url(#paint3_linear_10_1090)" stroke-width="0.8669" stroke-miterlimit="10"/>
<path opacity="0.54" d="M437.065 618.649C419.218 631.289 391.754 624.26 377.035 608.669C375.715 607.271 374.489 605.835 373.325 604.35C361.516 589.212 357.493 569.764 355.404 551.011C354.998 547.395 354.655 543.76 354.312 540.125C352.701 523.049 351.132 505.81 344.271 489.901C342.047 484.752 339.354 479.892 336.225 475.322C315.103 444.43 274.896 426.853 237.111 413.595C234.367 412.631 231.602 411.667 228.837 410.702C187.892 396.355 146.614 379.684 122.467 348.262C115.066 338.639 108.59 328.515 105.014 316.482C100.752 302.231 100.648 286.611 101.043 271.859C101.313 261.793 101.771 251.91 101.282 242.076C101.053 237.457 100.596 232.839 99.8685 228.22C95.2012 198.803 78.4968 170.205 55.1605 148.395C31.7825 126.537 2.17816 111.033 -29.6819 102.49" stroke="url(#paint4_linear_10_1090)" stroke-width="0.8669" stroke-miterlimit="10"/>
<path opacity="0.54" d="M442.616 616.344C424.8 628.995 397.388 622.139 382.524 606.722C381.193 605.343 379.946 603.916 378.771 602.441C366.807 587.448 362.555 568.106 360.227 549.41C359.78 545.804 359.395 542.179 359.011 538.554C357.202 521.536 355.466 504.335 348.522 488.483C346.277 483.354 343.554 478.514 340.415 473.944C319.157 443.118 278.971 425.686 241.113 412.718C238.358 411.773 235.604 410.837 232.828 409.893C191.831 395.902 150.772 379.685 125.668 349.419C117.779 339.902 110.544 329.961 106.615 317.697C101.947 303.157 102.083 287.017 102.935 271.937C103.517 261.649 104.38 251.583 104.255 241.545C104.193 236.821 103.902 232.106 103.309 227.362C99.5046 197.164 82.4883 167.477 58.414 145.165C34.2981 122.815 3.66455 107.273 -29.1207 98.7204" stroke="url(#paint5_linear_10_1090)" stroke-width="0.8669" stroke-miterlimit="10"/>
<path opacity="0.54" d="M448.167 614.05C430.371 626.7 403.033 620.028 388.012 604.774C386.671 603.415 385.403 601.997 384.218 600.541C372.108 585.683 367.607 566.457 365.061 547.829C364.572 544.233 364.135 540.627 363.709 537.011C361.713 520.051 359.801 502.898 352.774 487.095C350.497 481.985 347.764 477.154 344.604 472.603C323.221 441.846 283.035 424.558 245.115 411.879C242.36 410.953 239.595 410.037 236.82 409.121C195.771 395.488 154.878 379.723 128.88 350.614C120.492 341.214 112.498 331.446 108.236 318.941C103.153 304.112 103.538 287.45 104.858 272.052C105.752 261.552 107.02 251.303 107.259 241.054C107.373 236.233 107.238 231.402 106.781 226.533C103.839 195.554 86.5007 164.777 61.6987 141.964C36.8551 119.113 5.18216 103.541 -28.5282 94.9793" stroke="url(#paint6_linear_10_1090)" stroke-width="0.8669" stroke-miterlimit="10"/>
<path opacity="0.54" d="M453.728 611.745C435.964 624.405 408.688 617.897 393.522 602.826C392.17 601.477 390.892 600.079 389.686 598.632C377.42 583.919 372.69 564.799 369.905 546.229C369.374 542.652 368.896 539.045 368.429 535.449C366.235 518.537 364.146 501.433 357.046 485.687C354.749 480.596 351.994 475.775 348.814 471.244C327.307 440.554 287.131 423.41 249.138 411.021C246.373 410.124 243.608 409.227 240.832 408.331C199.731 395.054 158.952 379.771 132.103 351.791C123.194 342.506 114.473 332.912 109.858 320.165C104.359 305.047 104.993 287.865 106.771 272.149C107.976 261.427 109.65 251.004 110.253 240.533C110.534 235.606 110.565 230.679 110.242 225.685C108.174 193.924 90.5131 162.058 64.9731 138.744C39.3915 115.391 6.68946 99.7906 -27.946 91.2286" stroke="url(#paint7_linear_10_1090)" stroke-width="0.8669" stroke-miterlimit="10"/>
<path opacity="0.54" d="M459.279 609.441C441.546 622.101 414.332 615.776 399.01 600.869C397.638 599.539 396.349 598.15 395.133 596.723C382.711 582.145 377.742 563.15 374.728 544.628C374.146 541.061 373.626 537.474 373.117 533.887C370.726 517.033 368.47 499.967 361.287 484.28C358.969 479.198 356.194 474.406 353.003 469.875C331.361 439.262 291.195 422.253 253.14 410.153C250.375 409.276 247.599 408.398 244.813 407.53C203.66 394.62 162.965 379.82 135.304 352.957C125.866 343.788 116.417 334.358 111.469 321.39C105.565 305.982 106.438 288.28 108.673 272.245C110.19 261.311 112.28 250.705 113.247 240.022C113.694 234.999 113.891 229.956 113.704 224.846C112.498 192.304 94.5151 159.358 68.2474 135.533C41.9382 111.679 8.18627 96.0497 -27.364 87.478" stroke="url(#paint8_linear_10_1090)" stroke-width="0.8669" stroke-miterlimit="10"/>
<path opacity="0.54" d="M464.83 607.136C447.117 619.806 419.976 613.645 404.498 598.921C403.116 597.601 401.806 596.231 400.58 594.824C388.012 580.39 382.804 561.501 379.561 543.037C378.938 539.479 378.376 535.902 377.825 532.325C375.237 515.529 372.815 498.511 365.549 482.872C363.2 477.81 360.414 473.028 357.202 468.515C335.435 437.97 295.28 421.106 257.152 409.285C254.387 408.427 251.601 407.579 248.815 406.73C207.61 394.176 166.946 379.887 138.527 354.124C128.548 345.08 118.382 335.814 113.091 322.605C106.771 306.908 107.883 288.685 110.585 272.322C112.425 261.167 114.91 250.387 116.24 239.482C116.864 234.362 117.217 229.204 117.165 223.968C116.833 190.646 98.5274 156.61 71.5218 132.284C44.4849 107.928 9.69347 92.2604 -26.7819 83.6888" stroke="url(#paint9_linear_10_1090)" stroke-width="0.8669" stroke-miterlimit="10"/>
<path opacity="0.54" d="M470.381 604.842C452.699 617.511 425.621 611.533 409.997 596.983C408.604 595.682 407.284 594.332 406.037 592.924C393.314 578.625 387.867 559.853 384.395 541.446C383.73 537.908 383.127 534.34 382.534 530.773C379.759 514.035 377.15 497.055 369.811 481.474C367.441 476.431 364.634 471.668 361.402 467.165C339.51 436.687 299.365 419.968 261.164 408.437C258.389 407.598 255.603 406.769 252.817 405.949C211.56 393.752 170.886 379.993 141.739 355.31C131.209 346.391 120.346 337.289 114.712 323.839C107.976 307.853 109.338 289.109 112.508 272.428C114.66 261.051 117.55 250.098 119.244 238.981C120.034 233.755 120.554 228.5 120.637 223.139C121.167 189.036 102.54 153.91 74.796 129.083C47.0211 104.226 11.2007 88.529 -26.1998 79.9477" stroke="url(#paint10_linear_10_1090)" stroke-width="0.8669" stroke-miterlimit="10"/>
<path opacity="0.54" d="M475.942 602.537C458.281 615.216 431.265 609.412 415.496 595.026C414.082 593.744 412.752 592.404 411.494 591.015C398.615 576.861 392.939 558.194 389.239 539.855C388.532 536.326 387.877 532.769 387.243 529.22C384.27 512.54 381.495 495.599 374.073 480.066C371.672 475.043 368.855 470.289 365.601 465.796C343.575 435.386 303.44 418.821 265.177 407.569C262.401 406.749 259.605 405.949 256.809 405.149C215.5 393.309 174.794 380.109 144.951 356.477C133.859 347.693 122.3 338.745 116.323 325.063C109.182 308.788 110.783 289.523 114.411 272.525C116.874 260.935 120.169 249.799 122.228 238.47C123.194 233.147 123.87 227.777 124.088 222.291C125.481 187.406 106.531 151.191 78.0601 125.862C49.5575 100.504 12.6976 84.7782 -25.6281 76.1873" stroke="url(#paint11_linear_10_1090)" stroke-width="0.8669" stroke-miterlimit="10"/>
<path opacity="0.54" d="M481.493 600.233C463.863 612.912 436.909 607.281 420.985 593.078C419.56 591.806 418.209 590.485 416.931 589.106C403.895 575.096 397.981 556.536 394.052 538.255C393.293 534.735 392.607 531.197 391.931 527.658C388.761 511.036 385.819 494.143 378.314 478.658C375.892 473.654 373.044 468.91 369.78 464.437C347.628 434.094 307.505 417.673 269.168 406.711C266.383 405.91 263.586 405.129 260.79 404.358C219.419 392.875 178.651 380.263 148.142 357.653C136.479 349.004 124.244 340.201 117.924 326.288C110.367 309.723 112.217 289.938 116.303 272.612C119.078 260.8 122.789 249.481 125.201 237.939C126.334 232.511 127.176 227.034 127.529 221.432C129.795 185.767 110.523 148.463 81.3136 122.632C52.073 96.7726 14.184 81.0178 -25.0667 72.4269" stroke="url(#paint12_linear_10_1090)" stroke-width="0.8669" stroke-miterlimit="10"/>
<path opacity="0.54" d="M487.044 597.928C469.435 610.617 442.554 605.16 426.473 591.121C425.039 589.868 423.677 588.557 422.378 587.197C409.197 573.322 403.043 554.877 398.885 536.654C398.085 533.145 397.347 529.625 396.64 526.096C393.272 509.532 390.154 492.678 382.576 477.251C380.133 472.266 377.264 467.541 373.979 463.077C351.703 432.811 311.579 416.526 273.181 405.853C270.395 405.081 267.589 404.32 264.792 403.567C223.369 392.441 182.518 380.437 151.364 358.82C139.119 350.325 126.209 341.657 119.546 327.503C111.573 310.649 113.673 290.343 118.226 272.698C121.323 260.675 125.429 249.172 128.205 237.419C129.504 231.894 130.512 226.311 131.001 220.584C134.13 184.138 114.536 145.744 84.5986 119.412C54.6304 93.051 15.7018 77.2672 -24.4741 68.6666" stroke="url(#paint13_linear_10_1090)" stroke-width="0.8669" stroke-miterlimit="10"/>
<path opacity="0.54" d="M492.594 595.634C475.017 608.322 448.198 603.048 431.972 589.183C430.527 587.949 429.145 586.647 427.835 585.307C414.498 571.577 408.106 553.238 403.719 535.073C402.877 531.583 402.097 528.063 401.339 524.544C397.784 508.028 394.488 491.222 386.827 475.853C384.353 470.887 381.474 466.172 378.179 461.718C355.778 431.519 315.665 415.379 277.193 404.985C274.397 404.233 271.591 403.49 268.794 402.767C227.319 391.997 186.353 380.62 154.576 359.986C141.739 351.646 128.174 343.113 121.168 328.727C112.789 311.584 115.128 290.767 120.138 272.795C123.548 260.55 128.059 248.873 131.198 236.898C132.675 231.267 133.828 225.579 134.462 219.726C138.454 182.499 118.548 143.015 87.8729 116.182C57.1667 89.3196 17.2091 73.5069 -23.892 64.8967" stroke="url(#paint14_linear_10_1090)" stroke-width="0.8669" stroke-miterlimit="10"/>
<path opacity="0.54" d="M498.145 593.329C480.588 606.028 453.843 600.917 437.46 587.236C435.995 586.011 434.602 584.729 433.282 583.398C419.789 569.803 413.168 551.58 408.542 533.482C407.659 530.001 406.837 526.501 406.037 522.992C402.284 506.533 398.823 489.776 391.079 474.455C388.584 469.508 385.684 464.813 382.368 460.368C359.832 430.237 319.729 414.241 281.195 404.136C278.399 403.404 275.593 402.69 272.776 401.986C231.248 391.573 190.147 380.861 157.778 361.172C144.348 353.006 130.117 344.588 122.768 329.962C113.974 312.529 116.562 291.192 122.03 272.901C125.752 260.444 130.668 248.584 134.171 236.397C135.814 230.669 137.134 224.875 137.903 218.897C142.768 180.889 122.529 140.315 91.1264 112.981C59.6926 85.6171 18.6955 69.7755 -23.3307 61.1557" stroke="url(#paint15_linear_10_1090)" stroke-width="0.8669" stroke-miterlimit="10"/>
<path opacity="0.54" d="M503.707 591.025C486.181 603.723 459.487 598.796 442.959 585.278C441.483 584.073 440.08 582.81 438.739 581.489C425.091 568.039 418.241 549.921 413.386 531.882C412.451 528.41 411.588 524.92 410.746 521.43C406.796 505.029 403.158 488.31 395.341 473.047C392.815 468.12 389.904 463.434 386.568 459.008C363.907 428.945 323.814 413.094 285.208 403.278C282.401 402.565 279.595 401.87 276.778 401.196C235.198 391.139 193.962 381.102 160.99 362.348C146.957 354.365 132.082 346.044 124.39 331.186C115.18 313.464 118.018 291.606 123.943 272.988C127.976 260.308 133.309 248.275 137.165 235.876C138.984 230.052 140.46 224.142 141.365 218.048C147.092 179.259 126.542 137.596 94.4009 109.76C62.229 81.8953 20.2028 66.0247 -22.7485 57.3953" stroke="url(#paint16_linear_10_1090)" stroke-width="0.8669" stroke-miterlimit="10"/>
<path opacity="0.54" d="M509.257 588.73C491.752 601.428 465.131 596.685 448.458 583.34C446.972 582.145 445.548 580.901 444.196 579.59C430.402 566.284 423.303 548.273 418.22 530.291C417.243 526.829 416.338 523.358 415.455 519.877C411.307 503.535 407.503 486.854 399.603 471.639C397.056 466.731 394.125 462.055 390.767 457.639C367.982 427.643 327.899 411.937 289.22 402.411C286.414 401.716 283.597 401.041 280.78 400.395C239.148 390.696 197.756 381.372 164.212 363.515C149.566 355.725 134.047 347.5 126.022 332.411C116.407 314.4 119.483 292.021 125.876 273.084C130.221 260.193 135.959 247.977 140.179 235.355C142.165 229.426 143.807 223.409 144.847 217.19C151.447 177.62 130.564 134.868 97.6959 106.53C64.7964 78.164 21.7307 62.2645 -22.1457 53.635" stroke="url(#paint17_linear_10_1090)" stroke-width="0.8669" stroke-miterlimit="10"/>
<path opacity="0.54" d="M514.808 586.426C497.334 599.134 470.776 594.554 453.947 581.383C452.439 580.207 451.005 578.972 449.643 577.68C435.693 564.51 428.365 546.614 423.053 528.69C422.035 525.248 421.078 521.777 420.163 518.315C415.818 502.03 411.848 485.398 403.864 470.231C401.297 465.343 398.334 460.686 394.966 456.28C372.046 426.361 331.974 410.789 293.233 401.552C290.416 400.877 287.599 400.231 284.782 399.605C243.098 390.262 201.55 381.661 167.424 364.691C152.165 357.103 136.011 348.966 127.633 333.635C117.602 315.335 120.918 292.435 127.778 273.18C132.446 260.067 138.579 247.668 143.163 234.844C145.315 228.818 147.123 222.696 148.298 216.351C155.761 175.99 134.566 132.158 100.95 103.32C67.3223 74.4518 23.2172 58.5234 -21.5844 49.8843" stroke="url(#paint18_linear_10_1090)" stroke-width="0.8669" stroke-miterlimit="10"/>
<path opacity="0.54" d="M520.359 584.121C502.906 596.829 476.42 592.433 459.435 579.435C457.917 578.278 456.472 577.054 455.09 575.781C440.984 562.755 433.417 544.966 427.876 527.099C426.816 523.667 425.818 520.215 424.851 516.753C420.319 500.526 416.161 483.933 408.095 468.824C405.496 463.955 402.523 459.307 399.145 454.92C376.1 425.069 336.038 409.652 297.224 400.685C294.407 400.039 291.58 399.402 288.752 398.795C247.017 389.809 205.313 381.96 170.615 365.848C154.743 358.472 137.945 350.412 129.234 334.84C118.787 316.251 122.352 292.831 129.67 273.258C134.649 259.923 141.188 247.35 146.146 234.314C148.474 228.182 150.439 221.953 151.749 215.484C160.075 174.342 138.558 129.42 104.213 100.08C69.8482 70.7108 24.714 54.7438 -21.0127 46.1047" stroke="url(#paint19_linear_10_1090)" stroke-width="0.8669" stroke-miterlimit="10"/>
<path opacity="0.54" d="M525.92 581.817C508.498 594.534 482.075 590.311 464.934 577.488C463.406 576.34 461.94 575.135 460.547 573.872C446.296 560.981 438.49 543.307 432.71 525.508C431.598 522.085 430.569 518.643 429.56 515.201C424.831 499.032 420.507 482.477 412.357 467.426C409.737 462.576 406.744 457.948 403.345 453.57C380.175 423.787 340.113 408.514 301.237 399.836C298.409 399.209 295.582 398.602 292.754 398.014C250.967 389.394 209.107 382.307 173.838 367.034C157.352 359.89 139.92 351.877 130.855 336.084C120.003 317.205 123.808 293.264 131.593 273.364C136.884 259.817 143.828 247.061 149.15 233.803C151.645 227.574 153.776 221.23 155.221 214.645C164.42 172.722 142.581 126.711 107.498 96.8692C72.4055 66.9986 26.2214 51.0027 -20.4201 42.354" stroke="url(#paint20_linear_10_1090)" stroke-width="0.8669" stroke-miterlimit="10"/>
<path opacity="0.54" d="M531.471 579.522C514.07 592.24 487.709 588.19 470.433 575.54C468.894 574.412 467.408 573.216 466.005 571.972C451.597 559.226 443.552 541.658 437.554 523.917C436.4 520.504 435.319 517.081 434.269 513.649C429.342 497.528 424.851 481.03 416.619 466.028C413.968 461.197 410.964 456.578 407.544 452.211C384.239 422.494 344.198 407.366 305.249 398.978C302.422 398.37 299.584 397.782 296.756 397.223C254.907 388.96 212.891 382.664 177.05 368.211C159.94 361.307 141.874 353.343 132.477 337.308C121.209 318.14 125.263 293.679 133.506 273.46C139.109 259.691 146.468 246.762 152.144 233.292C154.805 226.967 157.102 220.516 158.682 213.806C168.744 171.102 146.583 124.011 110.773 93.6583C74.9417 63.2864 27.7285 47.2616 -19.8381 38.6032" stroke="url(#paint21_linear_10_1090)" stroke-width="0.8669" stroke-miterlimit="10"/>
<path opacity="0.54" d="M537.022 577.218C519.652 589.945 493.353 586.069 475.921 573.592C474.362 572.474 472.875 571.298 471.451 570.063C456.888 557.462 448.614 540 442.377 522.317C441.182 518.923 440.059 515.5 438.968 512.087C433.843 496.024 429.186 479.565 420.87 464.62C418.199 459.809 415.174 455.2 411.733 450.851C388.303 421.203 348.263 406.219 309.251 398.12C306.413 397.532 303.575 396.973 300.748 396.433C258.846 388.526 216.675 383.05 180.262 369.387C162.539 362.734 143.838 354.809 134.088 338.533C122.404 319.066 126.708 294.094 135.408 273.557C141.333 259.576 149.088 246.463 155.127 232.771C157.965 226.34 160.418 219.784 162.133 212.948C173.058 169.463 150.585 121.282 114.036 90.4284C77.478 59.5551 29.2253 43.5014 -19.2665 34.843" stroke="url(#paint22_linear_10_1090)" stroke-width="0.8669" stroke-miterlimit="10"/>
<path opacity="0.54" d="M542.573 574.913C525.224 587.641 498.998 583.948 481.41 571.635C479.84 570.536 478.333 569.379 476.898 568.154C462.179 555.687 453.666 538.342 447.211 520.716C445.974 517.332 444.799 513.928 443.677 510.525C438.365 494.519 433.521 478.099 425.132 463.212C422.43 458.42 419.394 453.831 415.933 449.492C392.378 419.92 352.348 405.072 313.263 397.262C310.426 396.693 307.577 396.153 304.74 395.642C262.786 388.092 220.469 383.435 183.464 370.563C165.117 364.18 145.782 356.264 135.699 339.767C123.61 320.011 128.153 294.518 137.311 273.653C143.548 259.45 151.707 246.164 158.111 232.26C161.115 225.733 163.724 219.07 165.584 212.109C177.383 167.843 154.576 118.573 117.301 87.2176C80.0041 55.8526 30.7223 39.7603 -18.6946 31.0923" stroke="url(#paint23_linear_10_1090)" stroke-width="0.8669" stroke-miterlimit="10"/>
<path opacity="0.54" d="M548.134 572.609C530.816 585.346 504.652 581.817 486.919 569.687C485.339 568.607 483.811 567.46 482.366 566.255C467.501 553.932 458.749 536.693 452.055 519.135C450.776 515.76 449.56 512.366 448.385 508.973C442.876 493.025 437.866 476.653 429.394 461.804C426.671 457.032 423.614 452.452 420.132 448.123C396.442 418.618 356.433 403.915 317.276 396.394C314.427 395.844 311.579 395.333 308.742 394.842C266.736 387.649 224.273 383.84 186.686 371.72C167.726 365.607 147.747 357.711 137.321 340.972C124.816 320.927 129.608 294.913 139.234 273.73C145.782 259.315 154.348 245.846 161.115 231.73C164.295 225.096 167.06 218.328 169.056 211.241C181.717 166.194 158.599 115.835 120.585 83.978C82.5611 52.1116 32.2398 35.9904 -18.1022 27.3127" stroke="url(#paint24_linear_10_1090)" stroke-width="0.8669" stroke-miterlimit="10"/>
<path opacity="0.54" d="M553.685 570.314C536.388 583.051 510.297 579.705 492.407 567.74C490.806 566.669 489.278 565.541 487.802 564.346C472.782 552.158 463.79 535.035 456.867 517.535C455.537 514.179 454.289 510.795 453.073 507.411C447.367 491.521 442.19 475.187 433.635 460.397C430.891 455.643 427.804 451.083 424.321 446.763C400.507 417.327 360.497 402.767 321.278 395.526C318.429 394.996 315.581 394.504 312.733 394.041C270.676 387.205 228.078 384.255 189.887 372.887C170.304 367.063 149.701 359.167 138.932 342.187C126.011 321.853 131.053 295.318 141.136 273.817C147.996 259.18 156.977 245.528 164.098 231.2C167.445 224.47 170.376 217.585 172.507 210.383C186.041 164.555 162.591 113.106 123.839 80.7383C85.087 48.3706 33.7263 32.2204 -17.5409 23.5331" stroke="url(#paint25_linear_10_1090)" stroke-width="0.8669" stroke-miterlimit="10"/>
<path opacity="0.54" d="M559.235 568.01C541.97 580.756 515.931 577.574 497.896 565.792C496.284 564.741 494.736 563.623 493.249 562.446C478.073 550.404 468.853 533.386 461.701 515.944C460.329 512.598 459.029 509.223 457.782 505.858C451.878 490.026 446.525 473.731 437.897 458.999C435.121 454.265 432.024 449.714 428.521 445.413C404.582 416.044 364.582 401.63 325.29 394.678C322.431 394.176 319.583 393.704 316.725 393.26C274.615 386.781 231.893 384.698 193.099 374.073C172.902 368.539 151.655 360.642 140.543 343.431C127.217 322.807 132.498 295.752 143.038 273.933C150.21 259.084 159.597 245.248 167.081 230.708C170.595 223.882 173.692 216.891 175.958 209.563C190.355 162.955 166.582 110.416 127.103 77.5468C87.6128 44.6777 35.223 28.4987 -16.9693 19.8017" stroke="url(#paint26_linear_10_1090)" stroke-width="0.8669" stroke-miterlimit="10"/>
<path opacity="0.54" d="M564.786 565.705C547.541 578.452 521.575 575.453 503.384 563.844C501.763 562.803 500.193 561.704 498.696 560.547C483.374 548.639 473.915 531.737 466.524 514.353C465.111 511.017 463.77 507.661 462.47 504.306C456.369 488.532 450.849 472.285 442.138 457.601C439.342 452.886 436.223 448.344 432.7 444.054C408.636 414.752 368.637 400.492 329.282 393.82C326.423 393.337 323.565 392.884 320.706 392.47C278.545 386.347 235.708 385.151 196.291 375.249C175.48 370.023 153.599 362.098 142.144 344.656C128.402 323.742 133.922 296.167 144.94 274.019C152.435 258.949 162.217 244.939 170.065 230.187C173.755 223.255 177.008 216.158 179.41 208.705C194.669 161.315 170.584 107.687 130.367 74.3168C90.1494 40.9462 36.7201 24.7382 -16.3973 16.0316" stroke="url(#paint27_linear_10_1090)" stroke-width="0.8669" stroke-miterlimit="10"/>
<path opacity="0.54" d="M570.347 563.401C553.134 576.157 527.23 573.332 508.893 561.887C507.261 560.865 505.681 559.776 504.164 558.628C488.686 546.865 478.988 530.069 471.379 512.742C469.923 509.416 468.53 506.07 467.2 502.734C460.911 487.008 455.215 470.81 446.421 456.183C443.593 451.488 440.464 446.966 436.92 442.685C412.721 413.46 372.742 399.335 333.315 392.952C330.446 392.489 327.587 392.065 324.729 391.669C282.515 385.904 239.574 385.605 199.534 376.416C178.11 371.499 155.584 363.554 143.786 345.871C129.629 324.668 135.398 296.572 146.874 274.106C154.68 258.814 164.867 244.631 173.079 229.657C176.935 222.628 180.355 215.416 182.892 207.847C199.024 159.676 174.607 104.959 133.662 71.0868C92.7063 37.2149 38.2479 20.978 -15.7946 12.2714" stroke="url(#paint28_linear_10_1090)" stroke-width="0.8669" stroke-miterlimit="10"/>
<path opacity="0.54" d="M575.898 561.106C558.705 573.862 532.874 571.211 514.382 559.949C512.729 558.946 511.139 557.866 509.611 556.738C493.977 545.12 484.05 528.43 476.202 511.171C474.695 507.864 473.271 504.528 471.888 501.192C465.402 485.524 459.529 469.364 450.662 454.795C447.814 450.119 444.664 445.606 441.099 441.344C416.775 412.187 376.796 398.207 337.307 392.113C334.438 391.67 331.569 391.265 328.71 390.898C286.445 385.489 243.41 386.097 202.725 377.612C180.699 373.022 157.529 365.039 145.387 347.124C130.824 325.632 136.832 297.015 148.766 274.232C156.884 258.727 167.476 244.361 176.062 229.175C180.085 222.04 183.671 214.732 186.343 207.037C203.338 158.086 178.609 102.278 136.926 67.905C95.2429 33.5317 39.745 17.2659 -15.2227 8.54968" stroke="url(#paint29_linear_10_1090)" stroke-width="0.8669" stroke-miterlimit="10"/>
<path opacity="0.54" d="M581.449 558.802C564.287 571.558 538.519 569.09 519.87 557.992C518.207 556.999 516.596 555.948 515.058 554.82C499.268 543.336 489.102 526.762 481.035 509.561C479.487 506.263 478.021 502.937 476.597 499.62C469.913 484.01 463.874 467.898 454.924 453.377C452.055 448.711 448.884 444.227 445.309 439.966C420.86 410.876 380.892 397.04 341.329 391.226C338.45 390.802 335.581 390.426 332.712 390.079C290.384 385.026 247.277 386.54 205.947 378.759C183.318 374.497 159.493 366.475 147.009 348.32C132.03 326.539 138.288 297.401 150.678 274.299C159.108 258.573 170.117 244.033 179.056 228.625C183.256 221.394 186.998 213.97 189.804 206.15C207.663 156.417 182.611 99.5207 140.2 64.6461C97.7791 29.7714 41.2522 13.467 -14.6407 4.75073" stroke="url(#paint30_linear_10_1090)" stroke-width="0.8669" stroke-miterlimit="10"/>
<path opacity="0.54" d="M587 556.497C568.331 570.401 539.506 566.438 520.504 552.92C501.513 539.402 490.38 518.614 481.295 498.068C472.21 477.521 464.279 456.068 449.498 438.606C423.126 407.482 379.073 393.984 336.704 389.298C294.324 384.602 251.144 387.041 209.159 379.945C185.927 376.021 161.458 367.941 148.63 349.554C133.236 327.484 139.743 297.825 152.601 274.395C165.46 250.966 184.056 230.168 193.276 205.311C212.008 154.798 186.634 96.8113 143.485 61.4353C100.336 26.0593 42.7698 9.7259 -14.0481 1" stroke="url(#paint31_linear_10_1090)" stroke-width="0.8669" stroke-miterlimit="10"/>
</g>
<defs>
<linearGradient id="paint0_linear_10_1090" x1="-48.3466" y1="130.695" x2="382.91" y2="654.699" gradientUnits="userSpaceOnUse">
<stop stop-color="#7ED4EF"/>
<stop offset="0.2294" stop-color="#66BFE6"/>
<stop offset="0.711" stop-color="#298BD0"/>
<stop offset="1" stop-color="#0169C2"/>
</linearGradient>
<linearGradient id="paint1_linear_10_1090" x1="-46.2503" y1="125.683" x2="387.732" y2="653" gradientUnits="userSpaceOnUse">
<stop stop-color="#7ED4EF"/>
<stop offset="0.2294" stop-color="#66BFE6"/>
<stop offset="0.711" stop-color="#298BD0"/>
<stop offset="1" stop-color="#0169C2"/>
</linearGradient>
<linearGradient id="paint2_linear_10_1090" x1="-44.1555" y1="120.673" x2="392.553" y2="651.301" gradientUnits="userSpaceOnUse">
<stop stop-color="#7ED4EF"/>
<stop offset="0.2294" stop-color="#66BFE6"/>
<stop offset="0.711" stop-color="#298BD0"/>
<stop offset="1" stop-color="#0169C2"/>
</linearGradient>
<linearGradient id="paint3_linear_10_1090" x1="-42.5392" y1="116.056" x2="396.895" y2="649.996" gradientUnits="userSpaceOnUse">
<stop stop-color="#7ED4EF"/>
<stop offset="0.2294" stop-color="#66BFE6"/>
<stop offset="0.711" stop-color="#298BD0"/>
<stop offset="1" stop-color="#0169C2"/>
</linearGradient>
<linearGradient id="paint4_linear_10_1090" x1="-41.7417" y1="112.114" x2="400.418" y2="649.365" gradientUnits="userSpaceOnUse">
<stop stop-color="#7ED4EF"/>
<stop offset="0.2294" stop-color="#66BFE6"/>
<stop offset="0.711" stop-color="#298BD0"/>
<stop offset="1" stop-color="#0169C2"/>
</linearGradient>
<linearGradient id="paint5_linear_10_1090" x1="-40.9927" y1="108.211" x2="403.893" y2="648.774" gradientUnits="userSpaceOnUse">
<stop stop-color="#7ED4EF"/>
<stop offset="0.2294" stop-color="#66BFE6"/>
<stop offset="0.711" stop-color="#298BD0"/>
<stop offset="1" stop-color="#0169C2"/>
</linearGradient>
<linearGradient id="paint6_linear_10_1090" x1="-40.2954" y1="104.352" x2="407.315" y2="648.226" gradientUnits="userSpaceOnUse">
<stop stop-color="#7ED4EF"/>
<stop offset="0.2294" stop-color="#66BFE6"/>
<stop offset="0.711" stop-color="#298BD0"/>
<stop offset="1" stop-color="#0169C2"/>
</linearGradient>
<linearGradient id="paint7_linear_10_1090" x1="-39.6537" y1="100.538" x2="410.682" y2="647.724" gradientUnits="userSpaceOnUse">
<stop stop-color="#7ED4EF"/>
<stop offset="0.2294" stop-color="#66BFE6"/>
<stop offset="0.711" stop-color="#298BD0"/>
<stop offset="1" stop-color="#0169C2"/>
</linearGradient>
<linearGradient id="paint8_linear_10_1090" x1="-39.1326" y1="96.824" x2="413.928" y2="647.321" gradientUnits="userSpaceOnUse">
<stop stop-color="#7ED4EF"/>
<stop offset="0.2294" stop-color="#66BFE6"/>
<stop offset="0.711" stop-color="#298BD0"/>
<stop offset="1" stop-color="#0169C2"/>
</linearGradient>
<linearGradient id="paint9_linear_10_1090" x1="-38.7095" y1="93.1905" x2="417.076" y2="646.999" gradientUnits="userSpaceOnUse">
<stop stop-color="#7ED4EF"/>
<stop offset="0.2294" stop-color="#66BFE6"/>
<stop offset="0.711" stop-color="#298BD0"/>
<stop offset="1" stop-color="#0169C2"/>
</linearGradient>
<linearGradient id="paint10_linear_10_1090" x1="-38.3461" y1="89.6064" x2="420.165" y2="646.726" gradientUnits="userSpaceOnUse">
<stop stop-color="#7ED4EF"/>
<stop offset="0.2294" stop-color="#66BFE6"/>
<stop offset="0.711" stop-color="#298BD0"/>
<stop offset="1" stop-color="#0169C2"/>
</linearGradient>
<linearGradient id="paint11_linear_10_1090" x1="-38.0237" y1="86.0563" x2="423.212" y2="646.487" gradientUnits="userSpaceOnUse">
<stop stop-color="#7ED4EF"/>
<stop offset="0.2294" stop-color="#66BFE6"/>
<stop offset="0.711" stop-color="#298BD0"/>
<stop offset="1" stop-color="#0169C2"/>
</linearGradient>
<linearGradient id="paint12_linear_10_1090" x1="-37.7315" y1="82.5307" x2="426.229" y2="646.272" gradientUnits="userSpaceOnUse">
<stop stop-color="#7ED4EF"/>
<stop offset="0.2294" stop-color="#66BFE6"/>
<stop offset="0.711" stop-color="#298BD0"/>
<stop offset="1" stop-color="#0169C2"/>
</linearGradient>
<linearGradient id="paint13_linear_10_1090" x1="-37.4614" y1="79.024" x2="429.224" y2="646.076" gradientUnits="userSpaceOnUse">
<stop stop-color="#7ED4EF"/>
<stop offset="0.2294" stop-color="#66BFE6"/>
<stop offset="0.711" stop-color="#298BD0"/>
<stop offset="1" stop-color="#0169C2"/>
</linearGradient>
<linearGradient id="paint14_linear_10_1090" x1="-37.2087" y1="75.5316" x2="432.202" y2="645.894" gradientUnits="userSpaceOnUse">
<stop stop-color="#7ED4EF"/>
<stop offset="0.2294" stop-color="#66BFE6"/>
<stop offset="0.711" stop-color="#298BD0"/>
<stop offset="1" stop-color="#0169C2"/>
</linearGradient>
<linearGradient id="paint15_linear_10_1090" x1="-36.9697" y1="72.0503" x2="435.165" y2="645.724" gradientUnits="userSpaceOnUse">
<stop stop-color="#7ED4EF"/>
<stop offset="0.2294" stop-color="#66BFE6"/>
<stop offset="0.711" stop-color="#298BD0"/>
<stop offset="1" stop-color="#0169C2"/>
</linearGradient>
<linearGradient id="paint16_linear_10_1090" x1="-36.7415" y1="68.578" x2="438.118" y2="645.562" gradientUnits="userSpaceOnUse">
<stop stop-color="#7ED4EF"/>
<stop offset="0.2294" stop-color="#66BFE6"/>
<stop offset="0.711" stop-color="#298BD0"/>
<stop offset="1" stop-color="#0169C2"/>
</linearGradient>
<linearGradient id="paint17_linear_10_1090" x1="-36.5222" y1="65.1132" x2="441.062" y2="645.408" gradientUnits="userSpaceOnUse">
<stop stop-color="#7ED4EF"/>
<stop offset="0.2294" stop-color="#66BFE6"/>
<stop offset="0.711" stop-color="#298BD0"/>
<stop offset="1" stop-color="#0169C2"/>
</linearGradient>
<linearGradient id="paint18_linear_10_1090" x1="-36.31" y1="61.6543" x2="443.999" y2="645.26" gradientUnits="userSpaceOnUse">
<stop stop-color="#7ED4EF"/>
<stop offset="0.2294" stop-color="#66BFE6"/>
<stop offset="0.711" stop-color="#298BD0"/>
<stop offset="1" stop-color="#0169C2"/>
</linearGradient>
<linearGradient id="paint19_linear_10_1090" x1="-36.1039" y1="58.2005" x2="446.93" y2="645.116" gradientUnits="userSpaceOnUse">
<stop stop-color="#7ED4EF"/>
<stop offset="0.2294" stop-color="#66BFE6"/>
<stop offset="0.711" stop-color="#298BD0"/>
<stop offset="1" stop-color="#0169C2"/>
</linearGradient>
<linearGradient id="paint20_linear_10_1090" x1="-35.9027" y1="54.7509" x2="449.855" y2="644.977" gradientUnits="userSpaceOnUse">
<stop stop-color="#7ED4EF"/>
<stop offset="0.2294" stop-color="#66BFE6"/>
<stop offset="0.711" stop-color="#298BD0"/>
<stop offset="1" stop-color="#0169C2"/>
</linearGradient>
<linearGradient id="paint21_linear_10_1090" x1="-35.706" y1="51.3048" x2="452.776" y2="644.842" gradientUnits="userSpaceOnUse">
<stop stop-color="#7ED4EF"/>
<stop offset="0.2294" stop-color="#66BFE6"/>
<stop offset="0.711" stop-color="#298BD0"/>
<stop offset="1" stop-color="#0169C2"/>
</linearGradient>
<linearGradient id="paint22_linear_10_1090" x1="-35.5131" y1="47.8621" x2="455.694" y2="644.709" gradientUnits="userSpaceOnUse">
<stop stop-color="#7ED4EF"/>
<stop offset="0.2294" stop-color="#66BFE6"/>
<stop offset="0.711" stop-color="#298BD0"/>
<stop offset="1" stop-color="#0169C2"/>
</linearGradient>
<linearGradient id="paint23_linear_10_1090" x1="-35.323" y1="44.4219" x2="458.608" y2="644.58" gradientUnits="userSpaceOnUse">
<stop stop-color="#7ED4EF"/>
<stop offset="0.2294" stop-color="#66BFE6"/>
<stop offset="0.711" stop-color="#298BD0"/>
<stop offset="1" stop-color="#0169C2"/>
</linearGradient>
<linearGradient id="paint24_linear_10_1090" x1="-35.1359" y1="40.9839" x2="461.52" y2="644.452" gradientUnits="userSpaceOnUse">
<stop stop-color="#7ED4EF"/>
<stop offset="0.2294" stop-color="#66BFE6"/>
<stop offset="0.711" stop-color="#298BD0"/>
<stop offset="1" stop-color="#0169C2"/>
</linearGradient>
<linearGradient id="paint25_linear_10_1090" x1="-34.9511" y1="37.5482" x2="464.429" y2="644.326" gradientUnits="userSpaceOnUse">
<stop stop-color="#7ED4EF"/>
<stop offset="0.2294" stop-color="#66BFE6"/>
<stop offset="0.711" stop-color="#298BD0"/>
<stop offset="1" stop-color="#0169C2"/>
</linearGradient>
<linearGradient id="paint26_linear_10_1090" x1="-34.7686" y1="34.1142" x2="467.336" y2="644.203" gradientUnits="userSpaceOnUse">
<stop stop-color="#7ED4EF"/>
<stop offset="0.2294" stop-color="#66BFE6"/>
<stop offset="0.711" stop-color="#298BD0"/>
<stop offset="1" stop-color="#0169C2"/>
</linearGradient>
<linearGradient id="paint27_linear_10_1090" x1="-34.5876" y1="30.6816" x2="470.241" y2="644.08" gradientUnits="userSpaceOnUse">
<stop stop-color="#7ED4EF"/>
<stop offset="0.2294" stop-color="#66BFE6"/>
<stop offset="0.711" stop-color="#298BD0"/>
<stop offset="1" stop-color="#0169C2"/>
</linearGradient>
<linearGradient id="paint28_linear_10_1090" x1="-34.4087" y1="27.2507" x2="473.144" y2="643.96" gradientUnits="userSpaceOnUse">
<stop stop-color="#7ED4EF"/>
<stop offset="0.2294" stop-color="#66BFE6"/>
<stop offset="0.711" stop-color="#298BD0"/>
<stop offset="1" stop-color="#0169C2"/>
</linearGradient>
<linearGradient id="paint29_linear_10_1090" x1="-34.231" y1="23.8211" x2="476.046" y2="643.84" gradientUnits="userSpaceOnUse">
<stop stop-color="#7ED4EF"/>
<stop offset="0.2294" stop-color="#66BFE6"/>
<stop offset="0.711" stop-color="#298BD0"/>
<stop offset="1" stop-color="#0169C2"/>
</linearGradient>
<linearGradient id="paint30_linear_10_1090" x1="-34.055" y1="20.3925" x2="478.947" y2="643.722" gradientUnits="userSpaceOnUse">
<stop stop-color="#7ED4EF"/>
<stop offset="0.2294" stop-color="#66BFE6"/>
<stop offset="0.711" stop-color="#298BD0"/>
<stop offset="1" stop-color="#0169C2"/>
</linearGradient>
<linearGradient id="paint31_linear_10_1090" x1="-33.8802" y1="16.965" x2="481.846" y2="643.604" gradientUnits="userSpaceOnUse">
<stop stop-color="#7ED4EF"/>
<stop offset="0.2294" stop-color="#66BFE6"/>
<stop offset="0.711" stop-color="#298BD0"/>
<stop offset="1" stop-color="#0169C2"/>
</linearGradient>
</defs>
</svg>
